<?xml version="1.0" encoding="UTF-8" standalone="no"?>
<!DOCTYPE svg PUBLIC "-//W3C//DTD SVG 1.1//EN" "http://www.w3.org/Graphics/SVG/1.1/DTD/svg11.dtd">
<svg width="100%" height="100%" viewBox="0 0 1280 1280" version="1.1" xmlns="http://www.w3.org/2000/svg" xmlns:xlink="http://www.w3.org/1999/xlink" xml:space="preserve" style="fill-rule:evenodd;clip-rule:evenodd;stroke-linejoin:round;stroke-miterlimit:1.41421;">
    <g transform="matrix(8.56562,0,0,8.56562,-2786.25,-4842)">
        <g transform="matrix(1.85103,0,0,1.23363,-274.015,-145.039)">
            <path d="M343.948,583.931L343.948,659.452C341.531,666.11 339.557,673.982 338.151,682.691C329.352,671.58 323.765,654.944 323.765,636.365C323.765,613.971 331.883,594.399 343.948,583.931Z" style="fill:rgb(237,201,81);"/>
        </g>
        <g transform="matrix(1.85103,0,0,1.23363,-236.657,-145.039)">
            <path d="M343.948,636.365L343.948,686.717L323.765,686.717L323.765,659.452C328.901,645.218 336.029,636.398 343.948,636.365Z" style="fill:rgb(46,204,113);"/>
        </g>
        <g transform="matrix(1.85103,0,0,1.23363,-236.657,-145.039)">
            <path d="M343.948,636.365C336.037,636.401 328.895,645.233 323.765,659.452L323.765,583.931C329.698,578.755 336.595,575.798 343.948,575.798L343.948,636.365Z" style="fill:rgb(235,104,65);"/>
        </g>
        <g transform="matrix(1.85103,0,0,1.23363,-199.298,-145.039)">
            <path d="M323.765,636.365L343.948,636.365L343.948,659.11C343.723,660.504 343.7,661.681 343.948,662.521L343.948,679.353L340.348,679.353L323.765,679.353L323.765,636.365Z" style="fill:rgb(52,152,219);"/>
        </g>
        <g transform="matrix(1.85103,0,0,1.23363,-199.298,-145.039)">
            <path d="M343.948,659.11L343.948,662.521C343.704,661.683 343.724,660.5 343.948,659.11Z" style="fill:rgb(52,152,219);"/>
        </g>
        <g transform="matrix(1.85103,0,0,1.23363,-199.298,-145.039)">
            <path d="M323.765,575.798C331.115,575.808 338.006,578.763 343.948,583.931L343.948,636.365L323.765,636.365L323.765,575.798Z" style="fill:rgb(204,51,63);"/>
        </g>
        <g transform="matrix(1.85103,0,0,1.23363,-161.94,-145.039)">
            <path d="M332.026,636.365C331.789,636.861 324.9,651.348 323.765,659.11L323.765,636.365L332.026,636.365Z" style="fill:rgb(155,89,182);"/>
        </g>
        <g transform="matrix(1.85103,0,0,1.23363,-161.94,-145.039)">
            <path d="M323.765,583.931C335.83,594.399 343.948,613.971 343.948,636.365C343.948,654.98 338.339,671.645 329.513,682.756C328.209,675.551 326.319,669.119 323.846,662.798L323.765,662.521L323.765,659.11C324.896,651.368 331.761,636.92 332.026,636.365L323.765,636.365L323.765,583.931Z" style="fill:rgb(0,160,176);"/>
        </g>
        <g transform="matrix(-0.790271,1.93561e-16,1.82315e-16,0.744356,716.108,259.763)">
            <g transform="matrix(-1.20419,0,-0,1.20419,868.433,-242.23)">
                <path d="M338.469,689.121C347.03,651.583 366.449,625.362 389.002,625.362C397.809,625.362 444.326,625.362 444.326,625.362C444.326,625.362 424.506,654.67 428.415,661.741C433.226,670.442 436.903,679.294 439.438,689.21C435.384,692.831 430.979,696.023 426.254,698.739C417.912,676.325 404.328,661.741 389.002,661.741C373.672,661.741 360.086,676.331 351.791,698.763C347.031,696.036 342.565,692.802 338.469,689.121Z" style="fill:rgb(40,40,40);"/>
            </g>
            <g transform="matrix(-1.20419,0,-0,1.20419,868.433,-242.23)">
                <path d="M389.002,638.134C386.085,638.134 383.717,640.502 383.717,643.419C383.717,646.335 386.085,648.703 389.002,648.703C391.918,648.703 394.286,646.335 394.286,643.419C394.286,640.502 391.918,638.134 389.002,638.134Z" style="fill:rgb(41,128,185);"/>
            </g>
            <g transform="matrix(1,0,0,1,10.9983,-70.7286)">
                <path d="M389.002,625.362L385.927,625.545L385.062,625.656L382.696,626.079L381.965,626.236L379.081,627.098L374.961,628.888L373.878,629.478L370.685,631.444L369.719,632.094L365.998,635.091L364.918,636.11L362.289,638.757L361.028,640.131L357.873,643.996L356.544,645.87L354.739,648.517L353.118,651.094L351.918,653.18L350.458,655.791L348.504,659.713L348.166,660.406C346.758,663.404 345.424,666.599 344.187,669.939C357.535,677.595 372.795,681.933 389.002,681.933C405.168,681.933 420.391,677.617 433.81,669.943L433.333,668.709L431.867,664.985L430.487,661.873L429.018,658.746L427.587,655.873L424.717,650.827L423.429,648.779L420.072,643.92L419.271,642.922L415.923,638.985L414.777,637.736L414.166,637.13L412.07,635.153L411.259,634.442L409.2,632.784L408.398,632.171L405.84,630.449L405.511,630.234L402.554,628.621L401.742,628.258L399.551,627.337L399.414,627.29L398.47,626.963L396.45,626.359L396.156,626.287L395.322,626.081L393.174,625.698L392.916,625.66L392.174,625.551L389.002,625.362C389.002,625.362 389.002,625.362 389.002,625.362Z" style="fill:white;"/>
            </g>
            <g transform="matrix(1,0,0,1,10.9983,-70.7286)">
                <path d="M429.151,659.014L430.366,661.6L429.774,660.265L429.151,659.014Z" style="fill:white;"/>
            </g>
            <g transform="matrix(1,0,0,1,10.9983,-70.7286)">
                <path d="M348.229,660.265L348.166,660.406L348.504,659.713L348.229,660.265Z" style="fill:white;"/>
            </g>
            <g transform="matrix(1,0,0,1,10.9983,-70.7286)">
                <path d="M424.784,650.934L427.545,655.789L425.187,651.574L424.784,650.934Z" style="fill:white;"/>
            </g>
            <g transform="matrix(1,0,0,1,10.9983,-70.7286)">
                <path d="M352.816,651.574L351.918,653.18L353.118,651.094L352.816,651.574Z" style="fill:white;"/>
            </g>
            <g transform="matrix(1,0,0,1,10.9983,-70.7286)">
                <path d="M420.136,644.005L423.384,648.706L422.704,647.626L420.136,644.005Z" style="fill:white;"/>
            </g>
            <g transform="matrix(1,0,0,1,10.9983,-70.7286)">
                <path d="M355.299,647.626L354.739,648.517L356.544,645.87L355.299,647.626Z" style="fill:white;"/>
            </g>
            <g transform="matrix(1,0,0,1,10.9983,-70.7286)">
                <path d="M361.028,640.131C359.959,641.349 358.913,642.635 357.873,643.996L361.028,640.131Z" style="fill:white;"/>
            </g>
            <g transform="matrix(1,0,0,1,10.9983,-70.7286)">
                <path d="M415.978,639.044L419.216,642.855L417.392,640.586L415.978,639.044Z" style="fill:white;"/>
            </g>
            <g transform="matrix(1,0,0,1,10.9983,-70.7286)">
                <path d="M363.428,637.517L362.289,638.757L364.918,636.11L363.428,637.517Z" style="fill:white;"/>
            </g>
            <g transform="matrix(1,0,0,1,10.9983,-70.7286)">
                <path d="M414.222,637.183L414.751,637.708L414.576,637.517L414.222,637.183Z" style="fill:white;"/>
            </g>
            <g transform="matrix(1,0,0,1,10.9983,-70.7286)">
                <path d="M411.289,634.466L412.043,635.127L411.66,634.765L411.289,634.466Z" style="fill:white;"/>
            </g>
            <g transform="matrix(1,0,0,1,10.9983,-70.7286)">
                <path d="M369.719,632.094C368.469,632.997 367.24,633.985 365.998,635.091L369.719,632.094Z" style="fill:white;"/>
            </g>
            <g transform="matrix(1,0,0,1,10.9983,-70.7286)">
                <path d="M408.415,632.182L409.168,632.757L408.651,632.341L408.415,632.182Z" style="fill:white;"/>
            </g>
            <g transform="matrix(1,0,0,1,10.9983,-70.7286)">
                <path d="M372.447,630.258L370.685,631.444L373.878,629.478L372.447,630.258Z" style="fill:white;"/>
            </g>
            <g transform="matrix(1,0,0,1,10.9983,-70.7286)">
                <path d="M405.521,630.239L405.778,630.407L405.556,630.258L405.521,630.239Z" style="fill:white;"/>
            </g>
            <g transform="matrix(1,0,0,1,10.9983,-70.7286)">
                <path d="M379.081,627.098C377.674,627.591 376.286,628.188 374.961,628.888L379.081,627.098Z" style="fill:white;"/>
            </g>
            <g transform="matrix(1,0,0,1,10.9983,-70.7286)">
                <path d="M401.75,628.262L402.553,628.621L402.381,628.527L401.75,628.262Z" style="fill:white;"/>
            </g>
            <g transform="matrix(1,0,0,1,10.9983,-70.7286)">
                <path d="M398.473,626.964L399.414,627.29L399.551,627.337L399.132,627.16L398.473,626.964Z" style="fill:white;"/>
            </g>
            <g transform="matrix(1,0,0,1,10.9983,-70.7286)">
                <path d="M395.323,626.082L396.156,626.287L396.449,626.359L395.815,626.169L395.323,626.082Z" style="fill:white;"/>
            </g>
            <g transform="matrix(1,0,0,1,10.9983,-70.7286)">
                <path d="M382.189,626.169L381.965,626.236L382.696,626.079L382.189,626.169Z" style="fill:white;"/>
            </g>
            <g transform="matrix(1,0,0,1,10.9983,-70.7286)">
                <path d="M392.175,625.551L392.916,625.66L393.174,625.698L392.436,625.566L392.175,625.551Z" style="fill:white;"/>
            </g>
            <g transform="matrix(1,0,0,1,10.9983,-70.7286)">
                <path d="M385.567,625.566L385.062,625.656L385.927,625.545L385.567,625.566Z" style="fill:white;"/>
            </g>
            <g transform="matrix(1,0,0,1,10.9983,-70.7286)">
                <path d="M430.366,661.6L430.487,661.873L431.624,664.292L433.333,668.709L433.817,669.939L431.642,664.315L430.366,661.6Z" style="fill:white;"/>
            </g>
            <g transform="matrix(1,0,0,1,10.9983,-70.7286)">
                <path d="M350.402,655.814L348.504,659.713C348.504,659.713 350.402,655.814 350.402,655.814L351.918,653.18C351.918,653.18 350.402,655.814 350.402,655.814Z" style="fill:white;"/>
            </g>
            <g transform="matrix(1,0,0,1,10.9983,-70.7286)">
                <path d="M427.546,655.791L427.587,655.873L428.053,656.693L429.018,658.746L429.151,659.014L428.071,656.714L427.545,655.789L427.546,655.791Z" style="fill:white;"/>
            </g>
            <g transform="matrix(1,0,0,1,10.9983,-70.7286)">
                <path d="M353.858,649.808L353.118,651.094C353.118,651.094 353.858,649.808 353.858,649.808L354.739,648.517C354.739,648.517 353.858,649.808 353.858,649.808Z" style="fill:white;"/>
            </g>
            <g transform="matrix(1,0,0,1,10.9983,-70.7286)">
                <path d="M423.384,648.706L423.429,648.779L424.126,649.788L424.717,650.827L424.784,650.934L424.143,649.806L423.384,648.706Z" style="fill:white;"/>
            </g>
            <g transform="matrix(1,0,0,1,10.9983,-70.7286)">
                <path d="M357.565,644.374L356.544,645.87C356.544,645.87 357.565,644.374 357.565,644.374L357.873,643.996C357.873,643.996 357.565,644.374 357.565,644.374Z" style="fill:white;"/>
            </g>
            <g transform="matrix(1,0,0,1,10.9983,-70.7286)">
                <path d="M419.216,642.855L419.271,642.922L419.872,643.629L420.072,643.92L420.104,643.959L420.136,644.005L419.887,643.644L419.216,642.855Z" style="fill:white;"/>
            </g>
            <g transform="matrix(1,0,0,1,10.9983,-70.7286)">
                <path d="M361.505,639.547L361.028,640.131C361.028,640.131 361.505,639.547 361.505,639.547L362.289,638.757C362.289,638.757 361.505,639.547 361.505,639.547Z" style="fill:white;"/>
            </g>
            <g transform="matrix(1,0,0,1,10.9983,-70.7286)">
                <path d="M414.751,637.708L414.777,637.736L415.316,638.271L415.923,638.985L415.978,639.044L415.33,638.283L414.751,637.708Z" style="fill:white;"/>
            </g>
            <g transform="matrix(1,0,0,1,10.9983,-70.7286)">
                <path d="M412.043,635.127L412.07,635.153L412.934,635.909L414.166,637.13L414.222,637.183L412.947,635.919L412.043,635.127Z" style="fill:white;"/>
            </g>
            <g transform="matrix(1,0,0,1,10.9983,-70.7286)">
                <path d="M365.66,635.363L364.918,636.11C364.918,636.11 365.66,635.363 365.66,635.363L365.998,635.091C365.998,635.091 365.66,635.363 365.66,635.363Z" style="fill:white;"/>
            </g>
            <g transform="matrix(1,0,0,1,10.9983,-70.7286)">
                <path d="M409.168,632.757L409.2,632.784L410.488,633.767L411.259,634.442L411.289,634.466L410.5,633.775L409.168,632.757Z" style="fill:white;"/>
            </g>
            <g transform="matrix(1,0,0,1,10.9983,-70.7286)">
                <path d="M405.778,630.407L405.84,630.449L407.98,631.852L408.398,632.171L408.415,632.182L407.991,631.858L405.778,630.407Z" style="fill:white;"/>
            </g>
            <g transform="matrix(1,0,0,1,10.9983,-70.7286)">
                <path d="M370.011,631.859L369.719,632.094C369.719,632.094 370.011,631.859 370.011,631.859L370.685,631.444C370.685,631.444 370.011,631.859 370.011,631.859Z" style="fill:white;"/>
            </g>
            <g transform="matrix(1,0,0,1,10.9983,-70.7286)">
                <path d="M402.79,628.727L402.553,628.621L402.554,628.621L402.795,628.729L405.415,630.17L405.511,630.234L405.521,630.239C404.627,629.696 403.723,629.197 402.795,628.729L402.795,628.729L402.79,628.727Z" style="fill:white;"/>
            </g>
            <g transform="matrix(1,0,0,1,10.9983,-70.7286)">
                <path d="M374.539,629.071L373.878,629.478C373.878,629.478 374.539,629.071 374.539,629.071L374.961,628.888C374.961,628.888 374.539,629.071 374.539,629.071Z" style="fill:white;"/>
            </g>
            <g transform="matrix(1,0,0,1,10.9983,-70.7286)">
                <path d="M399.551,627.337L399.551,627.337L400.125,627.536L401.742,628.258L401.75,628.262L400.13,627.537L400.125,627.536L400.124,627.535L399.551,627.337Z" style="fill:white;"/>
            </g>
            <g transform="matrix(1,0,0,1,10.9983,-70.7286)">
                <path d="M381.965,626.236C380.991,626.475 380.026,626.763 379.081,627.098C380.034,626.758 380.997,626.467 381.965,626.236L381.965,626.236Z" style="fill:white;"/>
            </g>
            <g transform="matrix(1,0,0,1,10.9983,-70.7286)">
                <path d="M396.449,626.359L396.45,626.359L397.407,626.595L398.47,626.963L398.473,626.964L397.411,626.596L397.407,626.595L397.406,626.595L396.449,626.359Z" style="fill:white;"/>
            </g>
            <g transform="matrix(1,0,0,1,10.9983,-70.7286)">
                <path d="M393.174,625.698L393.174,625.698L394.645,625.915L395.322,626.081L395.323,626.082L394.647,625.915L394.645,625.915L394.644,625.914L393.174,625.698Z" style="fill:white;"/>
            </g>
            <g transform="matrix(1,0,0,1,10.9983,-70.7286)">
                <path d="M384.053,625.786L382.696,626.079C382.696,626.079 384.053,625.786 384.053,625.786L385.062,625.656C385.062,625.656 384.053,625.786 384.053,625.786Z" style="fill:white;"/>
            </g>
            <g transform="matrix(1,0,0,1,10.9983,-70.7286)">
                <path d="M389.002,625.362C389.002,625.362 391.842,625.502 391.842,625.502L392.174,625.551L392.175,625.551L391.843,625.502L391.842,625.502L391.841,625.502L389.002,625.362C389.002,625.362 389.002,625.362 389.002,625.362Z" style="fill:white;"/>
            </g>
            <g transform="matrix(1,0,0,1,10.9983,-70.7286)">
                <path d="M386.513,625.469L385.927,625.545C385.927,625.545 386.513,625.469 386.513,625.469L389.002,625.362C389.002,625.362 386.513,625.469 386.513,625.469Z" style="fill:white;"/>
            </g>
            <g transform="matrix(1,0,0,1,10.9983,-70.7286)">
                <path d="M433.81,669.943L433.817,669.939C433.817,669.939 433.333,668.709 433.333,668.709L433.81,669.943Z" style="fill:white;"/>
            </g>
            <g transform="matrix(1,0,0,1,10.9983,-70.7286)">
                <path d="M430.487,661.873L430.366,661.6L429.151,659.014L429.018,658.746L430.487,661.873Z" style="fill:white;"/>
            </g>
            <g transform="matrix(1,0,0,1,10.9983,-70.7286)">
                <path d="M348.504,659.713L348.166,660.406C348.166,660.406 348.504,659.713 348.504,659.713L348.504,659.713Z" style="fill:white;"/>
            </g>
            <g transform="matrix(1,0,0,1,10.9983,-70.7286)">
                <path d="M427.545,655.789L424.784,650.934L424.717,650.827L427.587,655.873L427.546,655.791L427.545,655.789Z" style="fill:white;"/>
            </g>
            <g transform="matrix(1,0,0,1,10.9983,-70.7286)">
                <path d="M353.118,651.094L351.918,653.18C351.918,653.18 353.118,651.094 353.118,651.094L353.118,651.094Z" style="fill:white;"/>
            </g>
            <g transform="matrix(1,0,0,1,10.9983,-70.7286)">
                <path d="M420.072,643.92L423.429,648.779L423.384,648.706L420.136,644.005L420.104,643.959L420.072,643.92Z" style="fill:white;"/>
            </g>
            <g transform="matrix(1,0,0,1,10.9983,-70.7286)">
                <path d="M356.544,645.87L354.739,648.517C354.739,648.517 356.544,645.87 356.544,645.87L356.544,645.87Z" style="fill:white;"/>
            </g>
            <g transform="matrix(1,0,0,1,10.9983,-70.7286)">
                <path d="M361.028,640.131L357.873,643.996C357.873,643.996 361.028,640.131 361.028,640.131L361.028,640.131Z" style="fill:white;"/>
            </g>
            <g transform="matrix(1,0,0,1,10.9983,-70.7286)">
                <path d="M419.271,642.922L419.216,642.855L415.978,639.044L415.923,638.985L419.271,642.922Z" style="fill:white;"/>
            </g>
            <g transform="matrix(1,0,0,1,10.9983,-70.7286)">
                <path d="M364.918,636.11L362.289,638.757C362.289,638.757 364.918,636.11 364.918,636.11L364.918,636.11Z" style="fill:white;"/>
            </g>
            <g transform="matrix(1,0,0,1,10.9983,-70.7286)">
                <path d="M414.777,637.736L414.751,637.708L414.222,637.183L414.166,637.13L414.777,637.736Z" style="fill:white;"/>
            </g>
            <g transform="matrix(1,0,0,1,10.9983,-70.7286)">
                <path d="M412.07,635.153L412.043,635.127L411.289,634.466L411.259,634.442L412.07,635.153Z" style="fill:white;"/>
            </g>
            <g transform="matrix(1,0,0,1,10.9983,-70.7286)">
                <path d="M369.719,632.094L365.998,635.091C365.998,635.091 369.719,632.094 369.719,632.094L369.719,632.094Z" style="fill:white;"/>
            </g>
            <g transform="matrix(1,0,0,1,10.9983,-70.7286)">
                <path d="M409.2,632.784L409.168,632.757L408.415,632.182L408.398,632.171L409.2,632.784Z" style="fill:white;"/>
            </g>
            <g transform="matrix(1,0,0,1,10.9983,-70.7286)">
                <path d="M373.878,629.478L370.685,631.444C370.685,631.444 373.878,629.478 373.878,629.478L373.878,629.478Z" style="fill:white;"/>
            </g>
            <g transform="matrix(1,0,0,1,10.9983,-70.7286)">
                <path d="M405.84,630.449L405.778,630.407L405.521,630.239L405.511,630.234L405.84,630.449Z" style="fill:white;"/>
            </g>
            <g transform="matrix(1,0,0,1,10.9983,-70.7286)">
                <path d="M379.081,627.098L374.961,628.888C374.961,628.888 379.081,627.098 379.081,627.098L379.081,627.098Z" style="fill:white;"/>
            </g>
            <g transform="matrix(1,0,0,1,10.9983,-70.7286)">
                <path d="M402.554,628.621L402.553,628.621L401.75,628.262L401.742,628.258L402.554,628.621Z" style="fill:white;"/>
            </g>
            <g transform="matrix(1,0,0,1,10.9983,-70.7286)">
                <path d="M399.414,627.29L399.551,627.337L399.551,627.337L399.414,627.29L398.473,626.964L398.47,626.963L399.414,627.29Z" style="fill:white;"/>
            </g>
            <g transform="matrix(1,0,0,1,10.9983,-70.7286)">
                <path d="M396.156,626.287L396.45,626.359L396.449,626.359L396.156,626.287L395.323,626.082L395.322,626.081L396.156,626.287Z" style="fill:white;"/>
            </g>
            <g transform="matrix(1,0,0,1,10.9983,-70.7286)">
                <path d="M382.696,626.079L381.965,626.236C381.965,626.236 382.696,626.079 382.696,626.079L382.696,626.079Z" style="fill:white;"/>
            </g>
            <g transform="matrix(1,0,0,1,10.9983,-70.7286)">
                <path d="M392.916,625.66L393.174,625.698L393.174,625.698L392.916,625.66L392.175,625.551L392.174,625.551L392.916,625.66Z" style="fill:white;"/>
            </g>
            <g transform="matrix(1,0,0,1,10.9983,-70.7286)">
                <path d="M385.927,625.545L385.062,625.656C385.062,625.656 385.927,625.545 385.927,625.545L385.927,625.545Z" style="fill:white;"/>
            </g>
            <g transform="matrix(1,0,0,1,10.9983,-70.7286)">
                <path d="M389.002,625.362C389.002,625.362 389.002,625.362 389.002,625.362Z" style="fill:white;"/>
            </g>
            <g transform="matrix(2.01304,0,0,2.01304,-500.717,-610.301)">
                <path d="M446.803,564.636C445.367,564.927 444.279,566.203 444.279,567.732C444.279,569.261 445.367,570.538 446.803,570.829L447.44,570.893C449.185,570.893 450.601,569.477 450.601,567.732C450.601,565.988 449.185,564.571 447.44,564.571L446.803,564.636Z" style="fill:white;"/>
            </g>
        </g>
    </g>
</svg>
